<?xml version="1.0" encoding="UTF-8" standalone="no"?>
<!-- Created with Inkscape (http://www.inkscape.org/) -->

<svg
   xmlns:dc="http://purl.org/dc/elements/1.1/"
   xmlns:cc="http://creativecommons.org/ns#"
   xmlns:rdf="http://www.w3.org/1999/02/22-rdf-syntax-ns#"
   xmlns:svg="http://www.w3.org/2000/svg"
   xmlns="http://www.w3.org/2000/svg"
   xmlns:sodipodi="http://sodipodi.sourceforge.net/DTD/sodipodi-0.dtd"
   xmlns:inkscape="http://www.inkscape.org/namespaces/inkscape"
   width="80.546219mm"
   height="80.546219mm"
   viewBox="0 0 285.4 285.39998"
   id="svg3485"
   version="1.1"
   inkscape:version="0.91 r">
  <defs
     id="defs3487" />
  <sodipodi:namedview
     id="base"
     pagecolor="#ffffff"
     bordercolor="#666666"
     borderopacity="1.0"
     inkscape:pageopacity="0.0"
     inkscape:pageshadow="2"
     inkscape:zoom="0.98994949"
     inkscape:cx="457.9903"
     inkscape:cy="220.67267"
     inkscape:document-units="px"
     inkscape:current-layer="layer1"
     showgrid="false"
     inkscape:snap-grids="false"
     inkscape:window-width="1855"
     inkscape:window-height="1056"
     inkscape:window-x="65"
     inkscape:window-y="24"
     inkscape:window-maximized="1"
     inkscape:showpageshadow="false"
     showborder="false"
     showguides="false"
     fit-margin-top="0"
     fit-margin-left="0"
     fit-margin-right="0"
     fit-margin-bottom="0"
     units="mm" />
  <metadata
     id="metadata3490">
    <rdf:RDF>
      <cc:Work
         rdf:about="">
        <dc:format>image/svg+xml</dc:format>
        <dc:type
           rdf:resource="http://purl.org/dc/dcmitype/StillImage" />
        <dc:title></dc:title>
      </cc:Work>
    </rdf:RDF>
  </metadata>
  <g
     inkscape:label="Layer 1"
     inkscape:groupmode="layer"
     id="layer1"
     transform="translate(-208.72859,-272.51933)">
    <circle
       cx="351.42859"
       cy="415.21933"
       id="circle3430"
       style="fill:#fff9d4"
       r="142.7" />
    <g
       id="g3450"
       transform="translate(-497.37144,-134.88064)">
      <ellipse
         cx="876.5"
         cy="489.5"
         rx="69.5"
         ry="58.5"
         id="ellipse3452"
         style="fill:#ffaa30" />
      <ellipse
         cx="933"
         cy="565.5"
         rx="39"
         ry="42.5"
         id="ellipse3454"
         style="fill:#f24a2c" />
      <path
         d="m 741.3,574 c -2.8,13.6 -1.5,27.9 1.4,41.5 3,13.6 9.8,26.8 21,35 14.6,10.7 34.9,11.4 51.8,4.9 16.9,-6.5 30.7,-19.3 41.7,-33.6 17.3,-22.4 29.1,-50.5 26.4,-78.7 -0.4,-4.3 -10.8,-20.2 -15.3,-23.3 -8.6,-5.8 -17.9,-11.7 -28.2,-12.1 -7,-0.2 -81.1,-19.7 -98.8,66.3 z"
         id="path3456"
         inkscape:connector-curvature="0"
         style="fill:#ffe86a" />
      <g
         id="g3458">
        <path
           d="m 752.5,488.8 c 0,0 0.2,-0.1 0.5,-0.4 0.3,-0.2 0.8,-0.6 1.5,-1.1 1.4,-0.9 3.5,-2.2 6.4,-3.5 2.9,-1.3 6.7,-2.6 11.3,-3.2 2.3,-0.3 4.8,-0.5 7.4,-0.2 2.6,0.2 5.5,0.8 8.2,2.1 2.7,1.3 5.1,3.8 6.4,6.9 1.3,3.1 1.8,6.6 1.4,10.2 -0.7,7.2 -4.3,14.7 -10.5,20.2 -3.1,2.7 -6.9,5 -11.3,6 -2.2,0.5 -4.5,0.6 -6.8,0.2 -2.3,-0.4 -4.6,-1.4 -6.1,-3.4 -1.5,-1.9 -2,-4.5 -2,-6.9 0.1,-2.4 0.8,-4.9 2,-7.1 1.2,-2.2 2.8,-4.2 4.8,-5.7 1,-0.8 2.1,-1.4 3.3,-2 1.2,-0.5 2.3,-1 3.5,-1.5 4.8,-1.7 10.2,-2.7 15.5,-1.4 2.6,0.6 5.1,1.8 7.4,3.4 2.2,1.6 4.2,3.5 6,5.6 1.8,2.1 3.4,4.4 4.8,6.8 1.4,2.4 2.6,5 3.4,7.8 1.7,5.5 2,11.5 0.6,17.2 -1.4,5.7 -4.6,11.1 -9.2,15.1 -1.1,1 -2.4,1.9 -3.6,2.8 -1.2,0.9 -2.5,1.7 -3.9,2.4 -2.6,1.5 -5.5,2.8 -8.5,3.6 -3,0.8 -6.1,1.3 -9.3,0.8 -3.1,-0.4 -6.3,-2 -8.3,-4.6 l -0.4,-0.5 c -0.1,-0.1 -0.1,-0.1 -0.2,-0.3 l -0.1,-0.3 c -0.2,-0.3 -0.4,-0.7 -0.6,-1.1 -0.3,-0.8 -0.5,-1.6 -0.6,-2.4 -0.2,-1.7 0.1,-3.3 0.5,-4.9 1,-3.1 2.7,-5.9 4.6,-8.4 2,-2.5 4.3,-4.8 6.8,-6.8 1.3,-1 2.6,-1.9 4.1,-2.7 1.4,-0.8 2.9,-1.5 4.5,-2 6.2,-2.2 13,-2.5 19.4,-1.4 3.3,0.5 6.5,1.4 9.6,2.6 3.1,1.2 6.1,2.8 8.7,4.9 0.7,0.5 1.3,1.1 1.9,1.8 0.3,0.3 0.6,0.6 0.8,1 l 0.7,1 c 0.9,1.4 1.7,2.9 2.4,4.5 1.3,3.1 2,6.5 2.3,9.8 0.3,3.4 0.2,6.8 -0.3,10.1 -0.5,3.3 -1.3,6.6 -2.4,9.8 -1.1,3.2 -2.5,6.3 -4.3,9.2 -1.8,2.9 -3.9,5.6 -6.6,7.8 -5.3,4.3 -11.8,7.3 -18.7,7.8 -3.4,0.2 -7,-0.1 -10.2,-1.7 -0.8,-0.4 -1.6,-0.9 -2.2,-1.6 -0.4,-0.4 -0.6,-0.7 -0.8,-1.1 -0.3,-0.3 -0.5,-0.7 -0.7,-1.1 -0.9,-1.5 -1.6,-3.2 -2,-4.9 -0.8,-3.5 -0.3,-7.1 0.9,-10.3 1.2,-3.3 3,-6.3 5.2,-8.9 2.2,-2.7 4.8,-5 7.6,-6.9 2.9,-1.9 5.9,-3.5 9.1,-4.7 6.4,-2.4 13.3,-3.4 20,-2.7 6.7,0.6 13.4,2.9 18.9,6.8 1.4,1 2.7,2.1 3.9,3.2 0.6,0.6 1.2,1.2 1.8,1.8 0.5,0.6 1.1,1.4 1.5,2.1 1.7,3 2.5,6.3 3,9.6 0.8,6.6 0,13.4 -2,19.6 -2.1,6.2 -5.7,12 -10.7,16.3 -2.4,2.2 -5.1,4 -8,5.5 -2.9,1.4 -6.1,2.4 -9.4,2.5 -3.2,0.1 -6.7,-0.6 -9.2,-2.8 -0.3,-0.3 -0.6,-0.6 -0.9,-0.9 -0.1,-0.2 -0.3,-0.3 -0.4,-0.5 l -0.4,-0.5 c -0.5,-0.7 -0.9,-1.4 -1.2,-2.2 -0.6,-1.6 -0.7,-3.2 -0.6,-4.8 0.2,-3.2 1.5,-6.2 3,-8.9 1.6,-2.7 3.6,-5.1 5.9,-7.2 2.3,-2.1 4.8,-3.8 7.5,-5.3 2.7,-1.5 5.5,-2.6 8.4,-3.5 5.7,-1.8 11.9,-2.3 17.7,-0.8 5.8,1.4 10.8,5 14.4,9.4 3.7,4.3 6.3,9.6 7.4,15 1.1,5.4 0.7,11.1 -1.1,16.1 -0.9,2.5 -2.2,4.9 -3.8,7 -0.8,1 -1.7,2 -2.6,2.9 -0.9,0.9 -1.9,1.8 -2.9,2.6 -4,3.2 -8.7,5.5 -13.6,6.1 -2.5,0.3 -5,0.1 -7.3,-0.8 -1.1,-0.4 -2.2,-1.1 -3.1,-2 -0.4,-0.4 -0.8,-0.9 -1.1,-1.5 -0.3,-0.5 -0.6,-1.1 -0.8,-1.6 -0.9,-2.2 -1.1,-4.7 -0.8,-6.9 0.3,-2.3 1.1,-4.4 2.2,-6.4 2.1,-3.9 5,-7.2 8.5,-9.5 6.9,-4.6 14.6,-7.1 21.8,-6.9 3.6,0.1 7.1,0.9 10,2.5 1.5,0.8 2.8,1.7 4,2.8 1.2,1.1 2.2,2.3 3,3.5 0.8,1.2 1.6,2.5 2.2,3.8 0.6,1.3 1.1,2.6 1.3,3.9 0.5,2.6 0.4,5.2 -0.1,7.5 -0.9,4.6 -2.8,8.1 -4.6,10.8 -1.8,2.6 -3.6,4.3 -4.9,5.4 -0.6,0.5 -1.1,0.9 -1.4,1.2 -0.3,0.3 -0.5,0.4 -0.5,0.4 l -0.4,-0.6 c 0,0 0.2,-0.1 0.5,-0.4 0.3,-0.3 0.8,-0.7 1.4,-1.2 1.2,-1.1 2.8,-2.8 4.5,-5.4 1.7,-2.6 3.4,-6.1 4,-10.4 0.3,-2.2 0.3,-4.5 -0.2,-6.9 -0.1,-0.6 -0.3,-1.2 -0.5,-1.7 -0.1,-0.3 -0.2,-0.6 -0.4,-0.9 -0.1,-0.2 -0.3,-0.6 -0.4,-0.9 -0.6,-1.2 -1.3,-2.3 -2.1,-3.5 -0.8,-1.1 -1.8,-2.1 -2.8,-3.1 -1.1,-0.9 -2.3,-1.7 -3.6,-2.4 -2.6,-1.3 -5.8,-2 -9.1,-2 -6.6,0 -13.8,2.6 -20.1,7 -3,2.1 -5.5,5.1 -7.3,8.6 -1.7,3.4 -2.4,7.4 -1,10.3 0.1,0.2 0.2,0.3 0.2,0.5 0,0.1 0.1,0.1 0.1,0.2 l 0.2,0.4 0.1,0.2 c 0.1,0.1 0,0 0,0 l 0.1,0.2 c 0.1,0.1 0.2,0.2 0.3,0.3 0.5,0.4 1.1,0.8 1.9,1.1 1.5,0.6 3.5,0.7 5.4,0.4 3.9,-0.6 7.9,-2.6 11.4,-5.5 0.4,-0.4 0.9,-0.7 1.3,-1.1 0.4,-0.4 0.8,-0.7 1.2,-1.2 l 0.6,-0.6 0.5,-0.6 c 0.3,-0.4 0.7,-0.8 1,-1.3 1.3,-1.8 2.3,-3.7 3,-5.9 1.5,-4.2 1.7,-9 0.7,-13.6 -0.5,-2.3 -1.3,-4.5 -2.4,-6.6 -0.5,-1.1 -1.2,-2.1 -1.8,-3 l -0.6,-0.9 -0.2,-0.2 c 0,0 -0.2,-0.2 -0.1,-0.1 l -0.3,-0.4 c -0.4,-0.5 -0.7,-1 -1.2,-1.4 -3.2,-3.7 -7.2,-6.4 -11.8,-7.5 -4.6,-1.1 -9.7,-0.6 -14.7,1 -2.5,0.8 -4.9,1.9 -7.3,3.2 -0.6,0.3 -1.2,0.7 -1.7,1 l -0.8,0.5 -0.7,0.5 -0.9,0.7 -0.7,0.5 c -0.5,0.4 -1,0.8 -1.4,1.3 -1.9,1.8 -3.5,3.8 -4.7,5.9 -1.2,2.1 -2.1,4.4 -2.2,6.3 -0.1,0.9 0.1,1.7 0.3,2.3 0.1,0.1 0.1,0.3 0.2,0.4 0.1,0.2 0,0.1 0.1,0.2 l 0.4,0.5 c 0.1,0.1 -0.2,-0.2 0,0 l 0.1,0.1 c 0.1,0.1 0.2,0.2 0.4,0.3 1,0.9 2.9,1.4 5.1,1.3 4.4,-0.2 9.4,-2.9 13.4,-6.5 1.2,-1.1 2,-1.9 2.9,-2.9 0.9,-1 1.7,-2.1 2.4,-3.2 1.5,-2.3 2.6,-4.8 3.5,-7.5 1.7,-5.3 2.3,-11.3 1.6,-16.7 -0.4,-2.7 -1.1,-5.3 -2.2,-7.1 -0.4,-0.8 -1,-1.4 -2.1,-2.5 -1,-0.9 -2,-1.8 -3.1,-2.6 -4.5,-3.1 -10,-5 -15.7,-5.5 -5.7,-0.5 -11.6,0.3 -17,2.4 -1.3,0.5 -2.7,1.1 -4,1.8 -1.3,0.6 -2.5,1.4 -3.6,2.1 l -1,0.7 -0.5,0.4 c 0,0 -0.3,0.2 -0.1,0.1 l -0.2,0.2 c -0.5,0.4 -1,0.8 -1.5,1.3 -1,0.9 -2,1.9 -2.8,3 -3.5,4.2 -5.5,9.6 -4.6,13.4 0.2,0.9 0.6,1.9 1.1,2.7 0.1,0.1 0.1,0.1 0.1,0.2 l 0.1,0.1 0.2,0.2 0.4,0.5 c 0,0 0.3,0.4 0,0.1 0,0 0,-0.1 -0.1,-0.1 -0.2,-0.2 0,0 0.3,0.2 0.6,0.3 1.7,0.7 2.8,0.8 1.1,0.2 2.4,0.2 3.7,0.1 2.6,-0.2 5.2,-0.8 7.7,-1.9 1.3,-0.5 2.5,-1.2 3.7,-1.9 0.7,-0.4 1.1,-0.7 1.7,-1.1 l 0.9,-0.7 0.7,-0.6 c 0.9,-0.8 1.9,-1.7 2.7,-2.8 0.9,-1.1 1.7,-2.2 2.4,-3.4 1.5,-2.4 2.7,-5.1 3.7,-7.8 1.9,-5.5 2.8,-11.5 2.4,-17.1 -0.2,-2.8 -0.8,-5.5 -1.8,-7.9 l -0.4,-0.9 -0.4,-0.8 c -0.1,-0.3 -0.3,-0.5 -0.4,-0.7 l -0.2,-0.3 -0.1,-0.2 c 0,-0.1 -0.1,-0.2 -0.2,-0.2 l -0.7,-1 c -0.2,-0.2 0,0 0,0 l -0.1,-0.1 -0.2,-0.2 c -0.3,-0.3 -0.7,-0.7 -1.1,-1.1 -1.8,-1.5 -4.3,-2.8 -6.9,-3.8 -2.6,-1 -5.4,-1.8 -8.2,-2.2 -5.6,-0.9 -11.3,-0.7 -16.2,1 -0.3,0.1 -0.6,0.2 -0.9,0.3 l -0.5,0.2 -0.4,0.2 c -0.3,0.1 -0.5,0.2 -0.8,0.4 l -1.1,0.6 -0.3,0.1 c 0.2,-0.1 -0.1,0 -0.1,0 l -0.4,0.2 -0.8,0.5 c -0.5,0.4 -1.1,0.7 -1.6,1.2 -2.1,1.6 -4.1,3.6 -5.8,5.6 -1.7,2.1 -3,4.3 -3.6,6.3 -0.3,1 -0.4,1.8 -0.3,2.4 0,0.3 0.1,0.6 0.1,0.7 0,0 0,0 0,0 0,0 0,0.1 0.1,0.2 l 0.1,0.3 0.1,0.3 c -0.3,-0.4 0,0 -0.1,-0.1 l 0.2,0.2 c 0.9,1.2 2.3,2 4.3,2.3 2,0.3 4.4,0.1 6.8,-0.6 2.4,-0.7 4.8,-1.7 7.2,-3 1.1,-0.6 2.4,-1.4 3.4,-2.1 0.3,-0.2 0.6,-0.4 0.9,-0.6 L 795,551 c 0,0 0.2,-0.2 0.2,-0.1 l 0.2,-0.1 c 0.5,-0.4 1,-0.7 1.4,-1.1 3.7,-3.2 6.4,-7.4 7.6,-12.1 1.2,-4.7 1.1,-9.7 -0.3,-14.3 -0.7,-2.3 -1.6,-4.6 -2.8,-6.6 -1.3,-2.2 -2.7,-4.3 -4.2,-6.2 -1.5,-1.9 -3.2,-3.5 -5,-4.8 -1.8,-1.3 -3.7,-2.2 -5.7,-2.8 -4,-1.1 -8.5,-0.6 -12.8,0.9 -0.5,0.2 -1,0.4 -1.6,0.6 l -0.9,0.4 -0.4,0.2 c 0,0 -0.2,0.1 -0.3,0.1 -0.9,0.4 -1.7,0.9 -2.5,1.4 -1.6,1.1 -2.9,2.6 -3.8,4.2 -1.9,3.3 -2.2,7.4 -0.6,9.7 0.2,0.4 0.8,0.9 1.4,1.2 0.6,0.4 1.4,0.7 2.2,0.9 1.7,0.4 3.5,0.4 5.3,0 3.7,-0.7 7.1,-2.6 10,-5 5.8,-4.8 9.3,-11.7 10.2,-18.2 0.4,-3.3 0.1,-6.4 -1,-9.1 -0.6,-1.4 -1.3,-2.5 -2.2,-3.6 -0.9,-1.1 -2,-1.8 -3.2,-2.5 -2.4,-1.3 -5,-1.9 -7.5,-2.2 -2.5,-0.3 -4.9,-0.2 -7.1,0 -4.4,0.5 -8.2,1.6 -11,2.8 -2.9,1.2 -5,2.4 -6.4,3.2 -0.7,0.4 -1.2,0.8 -1.5,1 -0.3,0.2 -0.5,0.3 -0.5,0.3 l 0.3,-0.4 z"
           id="path3460"
           inkscape:connector-curvature="0"
           style="fill:#f15a24" />
      </g>
    </g>
  </g>
</svg>
